<svg id="Layer_1" data-name="Layer 1" xmlns="http://www.w3.org/2000/svg" viewBox="0 0 380.06 244.7"><defs><style>.cls-1{fill:#f37321;}</style></defs><path class="cls-1" d="M56.64,147q-8.67,6-13.9,8.93-12,6.89-20.8,6.89-10.33,0-17.09-10.08A29.37,29.37,0,0,1,0,136q0-26.28,23-61.24A252.9,252.9,0,0,1,72.34,19.14Q95.31,0,111.76,0q8.3,0,13.52,7a20.66,20.66,0,0,1,4,12.63q0,22.2-21.69,46.05Q91,84,82.42,84a6.12,6.12,0,0,1-3.83-1.53,5.44,5.44,0,0,1-2-4.21q0-3.19,5.61-7.79a133.29,133.29,0,0,0,23.48-23.73Q119.8,27.94,119.8,17a5.82,5.82,0,0,0-2.17-4.72,7.62,7.62,0,0,0-5-1.66q-6.77,0-18.11,7.91Q70.81,35.21,47.71,65.32a228.82,228.82,0,0,0-24.87,40.32q-8.68,18.24-8.68,29.85a14.57,14.57,0,0,0,2.94,8.67,12.17,12.17,0,0,0,10.33,5.49q9.06,0,22.33-9.57,16.58-12,23.73-19.26,6-6.12,9.05-6.13a4.51,4.51,0,0,1,3.58,1.66,8.17,8.17,0,0,1,1.78,5.36q0,3.57-4.34,9.44T69.79,153A341.5,341.5,0,0,0,50,192.52q-8,18.75-9.7,25.38-1.39,5.63-3.18,8a6.88,6.88,0,0,1-5.87,2.55,6.08,6.08,0,0,1-5.11-2.29,7.86,7.86,0,0,1-1.53-4.85q0-10.84,12.63-37.51,2-4.22,12.89-24.49Q52.3,155.26,56.64,147Z"/><path class="cls-1" d="M142.25,130.64q-11.35,13.4-18.12,19.9-13.39,12.77-22.32,12.76a8.35,8.35,0,0,1-6.89-3.19A10.31,10.31,0,0,1,93,153.73q0-13.77,16.33-36.61,16.59-23.22,24-23.22a5.49,5.49,0,0,1,5,5.1,8.35,8.35,0,0,1-1.47,4.91,118.25,118.25,0,0,1-8.36,9.38,131.25,131.25,0,0,0-13.39,16.33q-7,9.94-7,14.54c0,1.79.85,2.68,2.55,2.68q5.1,0,19.14-13.9,8.81-8.81,13.78-14.8,1-1.27,8.93-12.12,7.14-9.57,8.8-11.36,3.83-4.45,7.14-4.46A5,5,0,0,1,172.1,92a5.5,5.5,0,0,1,1.53,3.83q0,3.7-5.1,12.38Q162.41,118.78,157.3,128a201.56,201.56,0,0,0-12.37,25.52,70.14,70.14,0,0,0,14.93-11.61q11.47-11.49,14-17.1,2.42-5.1,5-5.1,3.57,0,3.57,3.57,0,6.77-11.48,20.16A122.8,122.8,0,0,1,137,170.7a404.64,404.64,0,0,1-20.29,42.74Q98.88,244.7,79.86,244.7a15.13,15.13,0,0,1-12.5-6,18,18,0,0,1-3.7-11.61q0-19.9,27.94-40.7a249.58,249.58,0,0,1,24.24-15.31q6.51-3.69,10.21-6,2.3-5.86,7-15.57Q138.3,139.07,142.25,130.64Zm-23.47,50.14q-13.53,6.89-27.69,19.65Q76.81,213.57,76.8,224.92A6.06,6.06,0,0,0,78.21,229a6.16,6.16,0,0,0,5,2.3q9.57,0,21.18-20,1.9-3.32,10.46-22.07Q116.61,185.38,118.78,180.78Z"/><path class="cls-1" d="M206.55,123.88a184.28,184.28,0,0,1,18.88-17.61Q237.81,96.7,242,96.7a4.9,4.9,0,0,1,3.57,1.54,4.22,4.22,0,0,1,1.4,3.06q0,2.42-4.46,7.91-6.9,8.67-9.57,14.8,29.85-30,40.83-30a5.91,5.91,0,0,1,3.95,1.4,4.85,4.85,0,0,1,1.79,3.83q0,3.57-5.49,9.18-24.12,24.88-24.11,40.83c0,4.33.76,7.44,2.29,9.31l3.32,4.21a4.27,4.27,0,0,1,1,2.93,5.52,5.52,0,0,1-1.66,3.83,5.81,5.81,0,0,1-4.34,2q-4.2,0-7.78-5.36a26.1,26.1,0,0,1-4.33-15q0-11.61,6.63-23.47a95.17,95.17,0,0,1,7.65-11.23q-10.84,8.16-22.07,22.45a132.25,132.25,0,0,0-13.78,21.69q-2.92,5.74-6.89,5.74-4.34,0-4.33-4.84,0-5.24,7.14-21.57a197,197,0,0,1,10.08-19.64Q201.07,137.14,190.09,166q-2.67,6.38-7.14,6.38a4.12,4.12,0,0,1-3.32-1.53,5.31,5.31,0,0,1-1.4-3.7q0-7.53,8.42-27.18a224.47,224.47,0,0,1,19.9-37.38Q214.2,91,218.42,91c2.55,0,3.82,1.37,3.82,4.09q0,1.78-4.72,8.93Q209.23,117.38,206.55,123.88Z"/><path class="cls-1" d="M310.78,89.94a4.47,4.47,0,0,1,3.57,1.66,4.78,4.78,0,0,1,1,2.81c0,1.53-1.24,4.08-3.7,7.65q-13.28,20.55-18.89,33.81a285.89,285.89,0,0,0-10.59,28.07q-2,6.38-6.37,6.38a4.86,4.86,0,0,1-4.09-2,5.48,5.48,0,0,1-1.4-3.58q0-3.82,8.16-25.51,6.39-17.1,20.67-37.76a70.33,70.33,0,0,1,6.89-9.06A6.59,6.59,0,0,1,310.78,89.94ZM335,42.61q5.75,0,5.74,5.87,0,5.35-5.61,11.87-5.36,6.24-10.33,6.25a5,5,0,0,1-4-1.79,5.79,5.79,0,0,1-1.53-4.08q0-6.12,6.76-13Q331.07,42.61,335,42.61Z"/><path class="cls-1" d="M321.75,141.87v2.29a8.3,8.3,0,0,0,1.41,4.85q3.18,4.73,10.46,4.72,15.94,0,36.87-24.49,3.7-4.22,6.25-4.21a3.7,3.7,0,0,1,3.32,3.31q0,5-12.25,16.84a92.35,92.35,0,0,1-20.41,15.19q-10.84,5.87-20.16,5.86-9.57,0-15.05-6.63-3.7-4.59-3.7-12.5,0-21.56,20.28-42.23Q345.23,88,357.48,88a9.63,9.63,0,0,1,6,2,8.61,8.61,0,0,1,3.32,7q0,6.76-6.25,16.58Q347.66,134.09,321.75,141.87Zm2.81-10a51.28,51.28,0,0,0,14-6.89,56.67,56.67,0,0,0,14.17-15.57,10.7,10.7,0,0,0,1.91-5.48c0-1.7-.81-2.55-2.42-2.55-2.22,0-5.36,1.65-9.45,5Q331.84,115.2,324.56,131.92Z"/><path class="cls-1" d="M64.27,109c3.59-4.61,16.92-4.39,21.74,3.17,5.76,9-4.88,21.82-6,21.47-.7-.23,2.15-6.12-.12-13.49-.46-1.48-2.76-8.35-6.88-8.82s-7,5.68-8.91,4.74C62.76,115.38,62.46,111.32,64.27,109Z"/></svg>