<svg id="Layer_1" data-name="Layer 1" xmlns="http://www.w3.org/2000/svg" viewBox="0 0 127.98 43.28"><defs><style>.cls-1{fill:#d72027;}</style></defs><title>Wuzi Africa Logo</title><path d="M68.42,35.77,60,19.36,51.58,35.78,41.42,8.42c1.75,0,3.27-.06,4.78.05.33,0,.76.59.91,1,1.6,4.2,3.16,8.41,4.73,12.63.13.33.27.66.51,1.25L60,8.39c2.61,5.07,5.08,9.9,7.69,15l2.86-7.51c.82-2.17,1.68-4.32,2.45-6.51a1.22,1.22,0,0,1,1.41-1c1.34.06,2.69,0,4.28,0Z"/><path d="M80.06,8.44H85V10c0,5.2,0,10.4,0,15.6A5.52,5.52,0,0,0,86.53,30a4.27,4.27,0,0,0,4.78.87,4.53,4.53,0,0,0,2.92-4.49c0-5.38,0-10.77,0-16.15V8.47h4.94a6.52,6.52,0,0,1,.1.9c0,5.53,0,11.05,0,16.58,0,5.28-2.94,9.05-7.63,10.1-5.35,1.2-11.14-2.5-11.48-8C79.75,21.59,80.06,15,80.06,8.44Z"/><path d="M102.18,13.37V8.46h18.53L108.86,30.75H119.3v4.91H100.49l11.9-22.29Z"/><path d="M123.19,8.45H128V35.68h-4.79Z"/><path class="cls-1" d="M0,21.64A21.57,21.57,0,0,0,6.52,37.11V6.16A21.58,21.58,0,0,0,0,21.64Z"/><path class="cls-1" d="M43.28,21.64a21.57,21.57,0,0,0-7-15.95v31.9A21.61,21.61,0,0,0,43.28,21.64Z"/><path class="cls-1" d="M27.9.93V42.35a21.34,21.34,0,0,0,5.8-2.75V3.68A21,21,0,0,0,27.9.93Z"/><path class="cls-1" d="M21.64,0a22.25,22.25,0,0,0-3.18.23V43a22.24,22.24,0,0,0,3.18.24A21.6,21.6,0,0,0,25.35,43V.32A22.65,22.65,0,0,0,21.64,0Z"/><path class="cls-1" d="M9.07,4V39.25a21.56,21.56,0,0,0,6.84,3.25V.77A21.59,21.59,0,0,0,9.07,4Z"/><path d="M6.52,6.16v31a21.72,21.72,0,0,0,2.55,2.14V4A21.64,21.64,0,0,0,6.52,6.16Z"/><path d="M15.91.77V42.5a21.36,21.36,0,0,0,2.55.54V.23A21.36,21.36,0,0,0,15.91.77Z"/><path d="M25.35.32V43a21.5,21.5,0,0,0,2.55-.6V.93A19.73,19.73,0,0,0,25.35.32Z"/><path d="M33.7,3.68V39.6a21.79,21.79,0,0,0,2.56-2V5.69A20.78,20.78,0,0,0,33.7,3.68Z"/></svg>